<?xml version="1.0" encoding="UTF-8"?>
<svg version="1.1" xmlns="http://www.w3.org/2000/svg" width="512" height="512">
<path d="M0 0 C5.88801969 4.48152059 10.9678062 9.88943037 16.18061256 15.12252426 C17.51472474 16.45092617 18.84946396 17.7786986 20.18477821 19.10589218 C23.79068213 22.69392679 27.38704317 26.29138188 30.98116136 29.89121771 C33.98791668 32.9010725 36.9992642 35.90631185 40.01058263 38.91160023 C47.1147872 46.00178297 54.21119089 53.09970638 61.30268288 60.20260239 C68.610204 67.52161525 75.93043418 74.82773592 83.25707847 82.1276015 C89.55838282 88.40673858 95.85188737 94.693618 102.13918275 100.98678219 C105.88958805 104.74055421 109.64281502 108.49138704 113.40350723 112.23485565 C116.93787783 115.75374197 120.46237674 119.28222857 123.979599 122.81825256 C125.26932158 124.11165617 126.56243943 125.40168469 127.85923195 126.68799973 C129.63374484 128.44926911 131.39538285 130.2225191 133.15444374 131.99920273 C133.66582227 132.50097625 134.17720079 133.00274976 134.70407563 133.51972854 C140.20532348 139.13436544 143.310463 145.11143683 143.23798561 153.08395004 C143.00148384 160.70909346 141.28369002 165.1362923 136.36298561 170.83395004 C130.71832317 175.67223214 126.51717769 178.23429348 119.05048561 178.14645004 C118.05661842 178.13742661 117.06275124 178.12840317 116.03876686 178.11910629 C115.27950905 178.10750473 114.52025124 178.09590317 113.73798561 178.08395004 C113.74686806 179.20037384 113.7557505 180.31679764 113.76490211 181.46705246 C113.84598333 191.98748149 113.90594887 202.50784715 113.9452343 213.02851772 C113.96611036 218.43734572 113.99442867 223.8459215 114.03974342 229.25460434 C114.08320001 234.47415585 114.10712258 239.69346475 114.11749458 244.91318321 C114.12488625 246.90471656 114.13932043 248.89623661 114.16090584 250.8876667 C114.18993717 253.67693796 114.19394171 256.46520634 114.19208717 259.25460434 C114.20646828 260.07819443 114.22084938 260.90178452 114.23566628 261.75033188 C114.20702318 265.73085692 114.027219 267.6296978 111.83460426 271.07328415 C109.34703571 273.45887261 108.33931806 274.00377238 104.92548561 274.45895004 C101.73798561 274.08395004 101.73798561 274.08395004 98.95897865 272.06592941 C96.73798561 269.08395004 96.73798561 269.08395004 96.91970253 265.39335251 C97.26026002 263.92213111 97.62733099 262.45690229 98.01459694 260.99728012 C98.39445201 259.30954821 98.76703424 257.62016782 99.13346291 255.92947006 C99.33242039 255.02679649 99.53137787 254.12412292 99.73636436 253.19409561 C105.64493897 224.4372896 109.7249279 187.99513263 93.22542763 161.94884872 C77.23010295 138.18481204 55.44642275 118.14932389 34.67548561 98.64645004 C33.94691117 97.96114731 33.21833673 97.27584458 32.46768427 96.5697751 C13.32212848 78.57968786 -6.24765501 61.10100575 -26.26201439 44.08395004 C-29.88409999 45.64013969 -32.40041891 47.8379664 -35.29196739 50.49656296 C-35.78470581 50.94808084 -36.27744423 51.39959872 -36.78511411 51.86479896 C-38.43345695 53.37881723 -40.07489736 54.9000857 -41.71587181 56.42208481 C-42.89708754 57.51215024 -44.07830607 58.60221262 -45.25952721 59.69227219 C-56.12221773 69.74233234 -66.8220876 79.96336043 -77.47689915 90.2330904 C-84.62280843 97.1143904 -91.81123822 103.93404357 -99.13677025 110.62423325 C-137.04437447 142.54707023 -137.04437447 142.54707023 -154.38078213 186.6123724 C-154.66651522 196.26820125 -153.94501419 205.94452191 -152.18235016 215.44635201 C-150.90784348 222.45715188 -150.90784348 222.45715188 -153.0300045 226.21287155 C-155.5124026 228.29384875 -156.56128927 228.76375698 -159.76201439 228.70895004 C-160.51482689 228.72184067 -161.26763939 228.73473129 -162.04326439 228.74801254 C-165.50482952 227.71198072 -166.39464674 226.17148918 -168.26201439 223.08395004 C-168.81295882 219.562378 -168.72753984 216.09000858 -168.65263939 212.53316879 C-168.6469796 211.51922546 -168.64131981 210.50528214 -168.63548851 209.46061325 C-168.61314437 206.23040668 -168.56295037 203.00131988 -168.51201439 199.77145004 C-168.49194691 197.57810672 -168.47369657 195.38474596 -168.45732689 193.19137192 C-168.41328618 187.82185092 -168.34639355 182.45298049 -168.26201439 177.08395004 C-169.14969505 177.10135239 -170.03737572 177.11875473 -170.9519558 177.13668442 C-172.11904076 177.15021957 -173.28612572 177.16375473 -174.48857689 177.17770004 C-175.64438255 177.19510239 -176.80018822 177.21250473 -177.9910183 177.23043442 C-184.76232731 176.92719622 -188.64955113 174.01093378 -193.13701439 169.14645004 C-197.20128631 164.39219707 -198.57035139 160.13426329 -198.69951439 153.89645004 C-198.73947533 152.85102036 -198.77943626 151.80559067 -198.82060814 150.72848129 C-197.35250364 141.1498694 -191.45150792 134.55104937 -184.74321556 127.98165512 C-183.89702156 127.13312469 -183.05082756 126.28459427 -182.17899132 125.4103508 C-179.87786707 123.10789774 -177.56609109 120.81686786 -175.2487371 118.53077149 C-172.81205334 116.1218743 -170.38937711 113.69896403 -167.96497154 111.27772141 C-163.89372003 107.21564183 -159.81346181 103.16280611 -155.726614 99.11642075 C-149.98439952 93.43101079 -144.25946465 87.7284405 -138.53753507 82.02262652 C-134.54891348 78.04650882 -130.55623367 74.07446687 -126.56275582 70.10322738 C-125.60115874 69.14697071 -124.63966245 68.19061267 -123.67826819 67.23415208 C-120.51236342 64.08488809 -117.34179078 60.94038324 -114.16899681 57.79806137 C-113.38274925 57.01607376 -112.59650169 56.23408615 -111.78642845 55.42840195 C-107.64679812 51.3366108 -103.41788631 47.41489948 -99.01074886 43.61312199 C-96.82777269 41.7042296 -94.77760239 39.69218012 -92.7488308 37.62081528 C-91.96086113 36.81985931 -91.17289146 36.01890335 -90.36104393 35.19367599 C-89.53687981 34.35180237 -88.71271568 33.50992874 -87.86357689 32.64254379 C-86.06715324 30.82373851 -84.27026392 29.00539307 -82.47295189 27.18746567 C-79.67520292 24.35264579 -76.88064151 21.5149418 -74.09404564 18.66915512 C-71.38064796 15.9009824 -68.65447092 13.14592656 -65.92607689 10.39254379 C-65.10596123 9.54864594 -64.28584557 8.70474808 -63.44087791 7.83527756 C-45.91020987 -9.77329814 -21.13504603 -14.21063886 0 0 Z M-57.02959251 25.64034653 C-57.86647102 26.47853928 -58.70334953 27.31673203 -59.565588 28.18032455 C-62.31278872 30.93398131 -65.05293692 33.69454852 -67.79326439 36.45504379 C-69.71210012 38.38138521 -71.63261125 40.30605255 -73.55315208 42.23069382 C-78.08396666 46.77284819 -82.61007945 51.3196541 -87.1341176 55.86855704 C-95.22683694 64.00568809 -103.3251533 72.13723892 -111.42880201 80.26348549 C-114.72135398 83.56572103 -118.00934011 86.87246064 -121.29631615 90.18024826 C-123.02890485 91.9196694 -124.76160568 93.65897886 -126.49443626 95.39815903 C-127.26661995 96.17708008 -128.03880363 96.95600113 -128.83438683 97.75852585 C-132.93303684 101.86566858 -137.12559779 105.78563601 -141.52197266 109.57226849 C-143.61118971 111.38730018 -145.59290695 113.2878953 -147.55083275 115.24337387 C-148.65623657 116.34404945 -148.65623657 116.34404945 -149.78397179 117.46696091 C-150.54887428 118.23388763 -151.31377678 119.00081436 -152.10185814 119.79098129 C-152.90942055 120.59758698 -153.71698296 121.40419266 -154.54901695 122.23524094 C-156.24014084 123.9256889 -157.93002095 125.61738199 -159.61870384 127.3102684 C-162.21286141 129.90982484 -164.81236864 132.50394679 -167.41240501 135.09762192 C-169.0592105 136.74508746 -170.70570615 138.39286278 -172.35185814 140.04098129 C-173.13093025 140.81802917 -173.91000237 141.59507706 -174.71268272 142.39567184 C-175.78498886 143.47270622 -175.78498886 143.47270622 -176.87895775 144.57149887 C-177.50990852 145.20324524 -178.1408593 145.83499161 -178.79092979 146.48588181 C-180.81195228 148.68135843 -181.2382834 149.90596762 -181.63701439 152.89645004 C-181.49949648 156.24028279 -181.49949648 156.24028279 -179.19951439 159.02145004 C-176.40680627 161.41204865 -176.40680627 161.41204865 -172.93891716 161.02951908 C-168.66840846 159.93129564 -166.4593534 158.1021056 -163.49407005 155.01734543 C-162.95808268 154.48436791 -162.42209531 153.95139039 -161.86986589 153.40226203 C-160.083005 151.61825196 -158.31844591 149.81372564 -156.55303001 148.00851059 C-155.27404558 146.72292016 -153.99371137 145.43867136 -152.71213341 144.15566635 C-149.95761687 141.39235598 -147.21283029 138.61984991 -144.47519493 135.83981514 C-140.14445404 131.44221801 -135.79249506 127.06603667 -131.43742943 122.69254684 C-124.54968163 115.7706612 -117.67609605 108.83490672 -110.80855417 101.89297849 C-98.51519679 89.46668256 -86.20516316 77.05696245 -73.87925863 64.66295081 C-69.55547655 60.31398002 -65.24026764 55.95672886 -60.93180656 51.59258115 C-58.24724674 48.87602648 -55.55654541 46.16561596 -52.86430359 43.45667648 C-51.61963861 42.20162547 -50.37759541 40.94396795 -49.13842392 39.68349266 C-47.4425458 37.95911361 -45.73747877 36.24434621 -44.02995872 34.53150558 C-43.54540923 34.03412484 -43.06085973 33.5367441 -42.56162691 33.02429122 C-38.264631 28.7482567 -33.86409478 25.45567581 -27.76201439 24.58395004 C-20.89672666 25.56470543 -16.20064312 29.70029885 -11.49407005 34.53150558 C-10.95808268 35.06916308 -10.42209531 35.60682057 -9.86986589 36.16077071 C-8.09034381 37.94934132 -6.32181036 39.74838391 -4.55303001 41.54757309 C-3.27342632 42.83785436 -1.99310844 44.12742768 -0.71213341 45.4163475 C2.03769701 48.18578 4.78293253 50.9596598 7.52480507 53.7369709 C11.86117067 58.12833366 16.21066318 62.50653428 20.56257057 66.88248825 C32.93298664 79.32527476 45.28554893 91.78569727 57.62519264 104.25899887 C64.44598454 111.15343738 71.27751697 118.03705097 78.12074137 124.90922576 C82.44906214 129.25716963 86.76351585 133.61828338 91.06819344 137.9896301 C93.74782662 140.70445169 96.43991746 143.40664607 99.13569641 146.10542679 C100.38297539 147.359148 101.62508708 148.61803447 102.86157608 149.88239861 C104.5508119 151.60822701 106.25763239 153.31455262 107.97004128 155.01734543 C108.45459077 155.52141833 108.93914027 156.02549124 109.43837309 156.54483908 C112.99204085 160.02150527 115.80123045 160.95086031 120.73798561 161.08395004 C123.80672459 159.76233578 123.80672459 159.76233578 125.73798561 157.08395004 C126.74032747 153.75800249 126.74032747 153.75800249 125.73798561 150.08395004 C120.42780163 142.4801769 112.8920711 136.06855779 106.35199928 129.50509262 C105.10595167 128.25112895 103.86008149 126.99698894 102.61437416 125.74268723 C98.54862079 121.65090949 94.47758966 117.56440485 90.40595436 113.47848129 C88.99860819 112.06576926 87.59126785 110.65305141 86.18393326 109.24032784 C80.32941778 103.36422139 74.47347595 97.48954257 68.61380482 91.618577 C60.24134561 83.22986653 51.87750155 74.83277211 43.52540988 66.42378122 C37.63585677 60.4954855 31.73671014 54.57684508 25.83039647 48.6652481 C22.30948579 45.1406929 18.79284098 41.61211958 15.28640747 38.07315636 C11.98865638 34.74524517 8.67912548 31.42951058 5.36039352 28.12252617 C4.14916428 26.91151692 2.94215712 25.69626669 1.73988533 24.47636414 C-6.80316148 15.81496258 -14.78578325 8.54828802 -27.53154564 7.95504379 C-40.39423055 8.56229501 -48.42897831 16.94214529 -57.02959251 25.64034653 Z " fill="#000000" transform="translate(321.2620143890381,7.916049957275391)"/>
<path d="M0 0 C13.28524464 10.99543012 23.85236375 13.11342595 40.79296875 13.12890625 C43.21875939 13.14723362 45.64454091 13.16680386 48.0703125 13.1875 C51.85969563 13.21641911 55.64848769 13.23828075 59.43798828 13.23876953 C63.11933698 13.24212536 66.79935361 13.27679476 70.48046875 13.31640625 C71.59649475 13.30933655 72.71252075 13.30226685 73.86236572 13.29498291 C84.4027363 13.45602376 93.912591 16.5920479 101.65234375 23.9609375 C109.70039451 33.28446059 113.19358018 43.77065998 112.40234375 55.98828125 C112.07234375 56.97828125 111.74234375 57.96828125 111.40234375 58.98828125 C138.65033076 50.80731524 165.50040353 42.07495932 190.15234375 27.55078125 C202.91549267 20.05016293 216.93498044 17.84919998 231.52734375 21.11328125 C242.95630055 24.38521961 253.86503865 29.97608247 260.46484375 40.17578125 C262.54871069 48.65017345 262.67310544 56.9000032 258.12231445 64.56079102 C241.04134371 88.66811424 202.75134002 107.49287745 177.40234375 121.98828125 C176.66193848 122.41222168 175.9215332 122.83616211 175.15869141 123.27294922 C170.71835181 125.80183942 166.25080895 128.27593231 161.7578125 130.70996094 C160.12996202 131.59340052 158.50514153 132.48243797 156.8828125 133.37597656 C135.88806316 144.91994106 114.35053983 152.87886075 90.65234375 156.73828125 C89.94529297 156.85397461 89.23824219 156.96966797 88.50976562 157.08886719 C73.37675121 159.34578547 57.89997189 159.31586236 42.63671875 159.7421875 C40.34954344 159.80784862 38.06237312 159.87368346 35.77520752 159.93968201 C31.00139318 160.07678642 26.22752706 160.21186315 21.45361328 160.34545898 C15.3878141 160.51536023 9.32217053 160.6902323 3.25655746 160.86663914 C-1.46222385 161.00332832 -6.18107742 161.13737956 -10.89995575 161.27067375 C-13.13389066 161.33407172 -15.3678038 161.39824262 -17.6016922 161.46325874 C-23.66236037 161.63886591 -29.7229427 161.79884409 -35.7848053 161.92729568 C-37.66990017 161.96816652 -39.5549079 162.01326185 -41.43980408 162.06245041 C-44.10275054 162.12876183 -46.7652542 162.1747352 -49.42871094 162.21459961 C-50.21658619 162.23740022 -51.00446144 162.26020082 -51.8162117 162.28369236 C-57.1155393 162.33069615 -57.1155393 162.33069615 -59.56524658 160.59083557 C-61.52034022 157.55604826 -61.88937789 154.55145273 -61.59765625 150.98828125 C-59.97265625 148.05078125 -59.97265625 148.05078125 -56.59765625 145.98828125 C-45.91906544 144.19663437 -34.55879537 144.66271235 -23.75748634 144.38809395 C-20.41811017 144.30279532 -17.07888884 144.21279967 -13.7396698 144.12156677 C-4.25280822 143.86303934 5.23422769 143.61145333 14.72143555 143.3659668 C20.55271813 143.21475082 26.38379804 143.05703134 32.21480751 142.89564323 C34.40658483 142.83623199 36.5984274 142.77916883 38.7903347 142.72476387 C50.62137972 142.43064557 62.41592426 141.93913371 74.2199707 141.07006836 C75.78860383 140.95857751 75.78860383 140.95857751 77.38892651 140.84483433 C101.33827484 138.95934854 124.18641587 131.37949991 145.30615234 120.09521484 C147.56964174 118.89993638 149.85255141 117.74904035 152.140625 116.6015625 C173.99509201 105.54775872 194.62149528 92.40364462 214.40234375 77.98828125 C215.01271484 77.54371582 215.62308594 77.09915039 216.25195312 76.64111328 C222.33114999 72.19014779 228.29469447 67.59104844 234.1328125 62.828125 C235.59158897 61.64553685 237.07223635 60.48916917 238.578125 59.3671875 C242.44364967 56.39786176 242.44364967 56.39786176 244.15234375 51.92578125 C242.99514252 47.39340975 240.51883193 45.34452312 236.640625 42.859375 C228.34351877 38.29849105 219.64222853 37.11686887 210.40234375 38.98828125 C203.28706411 41.32768424 196.92888378 44.8295008 190.46484375 48.55078125 C166.67483828 61.81141964 140.51693516 70.69333925 114.08203125 77.0300293 C107.19299803 78.68375723 101.88281228 80.34268066 96.56031799 85.24865723 C88.28763741 91.91757551 77.67832737 91.58413963 67.59375 91.51953125 C66.09447479 91.52223213 64.59520129 91.52611948 63.09593201 91.53112793 C59.9769498 91.53698239 56.8584299 91.52858424 53.73950195 91.50976562 C49.7457104 91.48683809 45.75298614 91.50021023 41.75923252 91.52405548 C38.6733748 91.53850582 35.58777077 91.53391356 32.50190544 91.52354431 C31.02872527 91.52088205 29.55552186 91.52412919 28.08236885 91.53346252 C26.02897985 91.54363194 23.97733157 91.52813237 21.92407227 91.50585938 C20.75812027 91.502677 19.59216827 91.49949463 18.3908844 91.49621582 C14.78975951 90.88416598 13.61310786 89.83808088 11.40234375 86.98828125 C10.47367866 83.24437158 10.89859722 79.92381051 12.71484375 76.55078125 C15.95002355 73.5552444 19.32920235 73.85505817 23.52270508 73.83056641 C24.78444046 73.82030426 26.04617584 73.81004211 27.34614563 73.79946899 C28.35720084 73.79431211 28.35720084 73.79431211 29.38868141 73.78905106 C31.50357462 73.77723649 33.61826596 73.75777651 35.733078 73.7359314 C41.7455672 73.67440708 47.75803557 73.62032791 53.77075195 73.58691406 C57.45077718 73.56591469 61.13043359 73.53056924 64.81024742 73.48615646 C66.2091607 73.47203719 67.60813922 73.46328324 69.00712013 73.46010208 C70.9694268 73.45516829 72.93165258 73.4303563 74.89379883 73.40478516 C76.00837967 73.3966983 77.12296051 73.38861145 78.27131653 73.38027954 C81.83884862 72.93363172 84.26247818 71.69089174 87.40234375 69.98828125 C88.06234375 69.98828125 88.72234375 69.98828125 89.40234375 69.98828125 C89.55703125 68.87453125 89.55703125 68.87453125 89.71484375 67.73828125 C90.45325181 64.78464899 91.52466295 63.33538225 93.40234375 60.98828125 C95.43385194 54.89375668 95.22670512 47.65533274 93.33984375 41.55078125 C88.28639056 34.86718187 83.77358455 32.27261131 75.40234375 30.98828125 C71.09252656 30.71567531 66.79396359 30.71114163 62.4765625 30.71484375 C59.96288618 30.6945544 57.44921433 30.67370361 54.93554688 30.65234375 C51.01241246 30.62978432 47.08945601 30.61328067 43.16625977 30.60742188 C39.35270826 30.59784069 35.53993701 30.56399922 31.7265625 30.52734375 C29.99160774 30.53491196 29.99160774 30.53491196 28.22160339 30.54263306 C13.62255323 30.36838358 1.68796733 25.00363163 -8.91015625 15.05078125 C-23.39308724 1.80044013 -41.10822512 -3.18196573 -60.39453125 -2.41796875 C-84.27400987 -0.86847122 -109.31485519 17.53392678 -125.24658203 34.77246094 C-127.73471956 37.61410021 -130.12880975 40.51997988 -132.48828125 43.46875 C-135.13581558 46.63108267 -135.81241625 46.89938616 -139.91015625 47.36328125 C-143.59765625 46.98828125 -143.59765625 46.98828125 -146.53515625 44.92578125 C-148.59765625 41.98828125 -148.59765625 41.98828125 -149.41015625 38.80078125 C-148.1524178 32.89908546 -144.61525668 29.36037584 -140.59765625 24.98828125 C-139.85 24.17101562 -139.10234375 23.35375 -138.33203125 22.51171875 C-101.85039676 -15.54031722 -45.54413759 -38.01496087 0 0 Z " fill="#000000" transform="translate(247.59765625,266.01171875)"/>
<path d="M0 0 C9.81559662 7.02803476 16.42724291 17.55032833 23.35668945 27.24560547 C27.65744279 33.24852183 32.08932992 39.13967308 36.58203125 45 C42.25791553 52.40509149 47.84136785 59.86806791 53.35302734 67.39599609 C57.73230337 73.36187652 62.20617289 79.25048911 66.70703125 85.125 C71.81872617 91.81788619 76.90934193 98.52465935 81.89453125 105.3125 C82.41926025 106.0144751 82.94398926 106.7164502 83.48461914 107.43969727 C90.3789186 116.91299635 93.50244441 125.83248734 92.64453125 137.5625 C89.11797947 156.22267951 75.75734116 165.799714 61.01171875 175.91845703 C56.06889803 179.35131127 51.22115088 182.91803421 46.35766602 186.46191406 C45.63893311 186.98366211 44.9202002 187.50541016 44.1796875 188.04296875 C43.54426025 188.50598389 42.90883301 188.96899902 42.25415039 189.44604492 C39.14789363 191.60058946 36.56557237 191.81008305 32.8125 192.0859375 C26.66529406 190.60174724 22.35952821 182.35396637 18.83203125 177.5625 C17.49428828 175.76112535 16.15571959 173.96036365 14.81640625 172.16015625 C14.12869141 171.23477051 13.44097656 170.30938477 12.73242188 169.35595703 C9.38455484 164.87673642 5.98181506 160.43985877 2.58203125 156 C-3.04931931 148.63368011 -8.58767874 141.20645529 -14.06665039 133.72631836 C-18.42830957 127.78555473 -22.87608376 121.91487656 -27.35546875 116.0625 C-33.0090027 108.67608208 -38.57017069 101.23055534 -44.06640625 93.7265625 C-48.42824076 87.78578338 -52.87610942 81.91504262 -57.35546875 76.0625 C-64.30800647 66.97609847 -71.16144398 57.82008457 -77.89208984 48.56787109 C-78.86008992 47.24135246 -79.83688308 45.92120165 -80.82275391 44.60791016 C-85.56244714 38.20974824 -85.56244714 38.20974824 -85.1875 33.640625 C-83.38953413 29.14993091 -79.09368228 26.66064232 -75.2734375 23.93603516 C-73.12263574 22.39575884 -71.00457436 20.81572488 -68.88671875 19.23046875 C-64.83307663 16.20441146 -60.75017224 13.22082394 -56.65771484 10.24755859 C-54.55876189 8.71129419 -52.47957771 7.15260495 -50.40625 5.58203125 C-35.09696515 -5.91696105 -17.38063821 -10.60708932 0 0 Z M-43.03735352 21.46386719 C-49.89496055 26.84934929 -57.13236565 31.68528276 -64.35546875 36.5625 C-61.30562676 42.26306885 -57.68755078 47.1971661 -53.66796875 52.25 C-52.40027344 53.86137509 -51.13334503 55.4733538 -49.8671875 57.0859375 C-49.25794434 57.8603418 -48.64870117 58.63474609 -48.02099609 59.43261719 C-45.24733287 62.97958845 -42.56365618 66.59164619 -39.875 70.203125 C-37.1924501 73.79484242 -34.46485231 77.35187214 -31.74169922 80.9128418 C-25.29223539 89.34786578 -18.92000089 97.83067195 -12.64575195 106.39672852 C-7.62385327 113.23664393 -2.48052754 119.97984062 2.67700195 126.71777344 C7.70771407 133.30206098 12.63881236 139.95374249 17.53564453 146.63793945 C23.45541249 154.70219164 29.53749694 162.63958672 35.64453125 170.5625 C38.98344011 169.94487672 41.06485609 168.74725637 43.76953125 166.71875 C44.55320068 166.13609375 45.33687012 165.5534375 46.14428711 164.953125 C46.96936768 164.32921875 47.79444824 163.7053125 48.64453125 163.0625 C49.49088135 162.42828125 50.33723145 161.7940625 51.20922852 161.140625 C52.90552152 159.86925315 54.60029121 158.59584606 56.29345703 157.3203125 C58.32079645 155.80454471 60.36256648 154.31557149 62.421875 152.84375 C63.46472656 152.0909375 64.50757813 151.338125 65.58203125 150.5625 C66.47792969 149.923125 67.37382812 149.28375 68.296875 148.625 C72.45655558 144.9705718 75.33246409 140.72921434 75.8828125 135.14453125 C75.90730469 134.23058594 75.93179688 133.31664062 75.95703125 132.375 C76.01310547 131.02341797 76.01310547 131.02341797 76.0703125 129.64453125 C75.00889455 121.96142335 70.00978146 116.11772155 65.26953125 110.25 C64.00703091 108.65790009 62.74667714 107.06409605 61.48828125 105.46875 C60.84761719 104.65664063 60.20695312 103.84453125 59.546875 103.0078125 C56.54246002 99.14587456 53.65407909 95.20184294 50.76953125 91.25 C45.78826193 84.43582043 40.71763688 77.6985894 35.58203125 71 C30.67019251 64.5885913 25.84301204 58.13188232 21.14453125 51.5625 C16.28618461 44.77700156 11.31701939 38.08359242 6.26953125 31.4375 C5.61533203 30.57253906 4.96113281 29.70757812 4.28710938 28.81640625 C-3.7142891 17.31312843 -3.7142891 17.31312843 -15.35546875 10.5625 C-27.3377587 8.9600053 -34.02779199 14.36270819 -43.03735352 21.46386719 Z " fill="#000000" transform="translate(88.35546875,320.4375)"/>
<path d="M0 0 C1.53117112 -0.0027014 3.06234055 -0.00658918 4.59350586 -0.01159668 C7.78743987 -0.01746138 10.98092345 -0.00902781 14.17480469 0.00976562 C18.24313727 0.03255398 22.31041392 0.01941443 26.37870789 -0.00452423 C29.53600846 -0.01906502 32.69306384 -0.01433867 35.85037231 -0.00401306 C37.34929534 -0.00136855 38.84824155 -0.00453423 40.34713745 -0.01393127 C52.00699174 -0.07101093 61.52487178 1.22212147 70.3046875 9.46875 C75.69484059 15.79319629 78.12414264 23.09619529 78.25537109 31.31811523 C78.27143402 32.23934677 78.28749695 33.16057831 78.30404663 34.10972595 C78.34881217 38.29294764 78.38951766 42.47601865 78.41259766 46.65942383 C78.42918655 48.86395808 78.45651478 51.06843791 78.49462891 53.27270508 C78.54942426 56.46203313 78.57127133 59.6501083 78.5859375 62.83984375 C78.60860687 63.82125839 78.63127625 64.80267303 78.65463257 65.81382751 C78.64066827 70.34302109 78.56580672 73.53540865 75.66088867 77.15405273 C73.0625 79.53125 73.0625 79.53125 70.96484375 80.2578125 C67.86927696 80.09780308 65.50123687 79.80297569 62.84790039 78.15966797 C60.01070426 73.98282488 60.51863605 69.78600699 60.55859375 64.8515625 C60.54917252 63.80604218 60.53975128 62.76052185 60.53004456 61.68331909 C60.50135757 58.34076381 60.49831737 54.99891854 60.5 51.65625 C60.49639075 48.32082598 60.48682545 44.98592031 60.45924377 41.65060425 C60.44247904 39.57606537 60.43956102 37.50135611 60.45225525 35.42678833 C60.41355116 30.09842128 60.27068234 26.01981621 57.0625 21.53125 C53.17984736 18.66161373 50.39172829 18.15318492 45.60742188 18.14306641 C44.32258911 18.13360992 43.03775635 18.12415344 41.71398926 18.1144104 C40.31973969 18.11978043 38.92549294 18.12593346 37.53125 18.1328125 C36.09305677 18.13079002 34.65486454 18.12787712 33.2166748 18.12411499 C30.2073385 18.1196998 27.19826994 18.12609643 24.18896484 18.14013672 C20.33873939 18.15722848 16.48914136 18.14738293 12.6389389 18.12941933 C9.67058618 18.1185595 6.70238131 18.12203783 3.73402405 18.1298027 C2.31470159 18.13179865 0.89536555 18.12936675 -0.52394104 18.12236404 C-2.51009857 18.11471425 -4.4963034 18.1284484 -6.48242188 18.14306641 C-7.61095581 18.14545319 -8.73948975 18.14783997 -9.90222168 18.15029907 C-14.15274565 18.68377274 -16.77481575 20.33028612 -19.72460938 23.37719727 C-21.24140278 26.07097106 -21.32081107 27.91367551 -21.34375 30.99609375 C-21.36566406 32.04345703 -21.38757813 33.09082031 -21.41015625 34.16992188 C-21.41917969 35.25853516 -21.42820313 36.34714844 -21.4375 37.46875 C-21.45542715 39.62384993 -21.48622238 41.77888969 -21.53125 43.93359375 C-21.53833984 44.88741943 -21.54542969 45.84124512 -21.55273438 46.82397461 C-22.00800065 50.02730438 -23.05201502 51.92316844 -24.9375 54.53125 C-28.06692465 56.09596233 -31.54832223 56.22826958 -34.9375 55.53125 C-37.73990782 53.34473083 -38.82307211 52.14071838 -39.48681641 48.60546875 C-39.54378399 44.91269162 -39.58087454 41.22453308 -39.5625 37.53125 C-39.59472656 36.26667969 -39.62695312 35.00210938 -39.66015625 33.69921875 C-39.67011927 24.02513035 -37.60147913 16.18021335 -31.34912109 8.60742188 C-22.51251898 0.22524391 -11.51023222 -0.07216124 0 0 Z " fill="#000000" transform="translate(273.9375,189.46875)"/>
<path d="M0 0 C5.20737608 4.07439049 8.78431328 9.12517437 10.0546875 15.7109375 C10.16429393 17.51661805 10.22315162 19.32568204 10.24755859 21.13452148 C10.26362152 22.21922226 10.27968445 23.30392303 10.29623413 24.42149353 C10.34077851 29.35984563 10.38171531 34.29806641 10.40478516 39.23657227 C10.4213759 41.84278269 10.44870626 44.44894705 10.48681641 47.05493164 C10.5414881 50.8142047 10.56344188 54.57241461 10.578125 58.33203125 C10.60079437 59.49673447 10.62346375 60.66143768 10.64682007 61.86143494 C10.62325866 70.85477312 10.62325866 70.85477312 7.65307617 73.94311523 C3.60248593 76.69894761 1.87408651 76.47592147 -2.9453125 75.7109375 C-5.63218331 73.52100033 -6.79892248 71.73658264 -7.29196167 68.28222656 C-7.4228742 65.18910558 -7.41974073 62.11906337 -7.37890625 59.0234375 C-7.38851011 56.69270766 -7.39828083 54.3619785 -7.40820312 52.03125 C-7.39959383 48.3641806 -7.3827301 44.69728556 -7.3605957 41.03027344 C-7.34609329 37.48597791 -7.36131512 33.94269678 -7.37890625 30.3984375 C-7.36242538 29.30249268 -7.34594452 28.20654785 -7.32896423 27.07739258 C-7.34058573 20.86852672 -7.34058573 20.86852672 -10.26757812 15.51538086 C-13.72017871 13.18877885 -15.87392007 13.13637796 -20.0078125 13.2734375 C-21.21566406 13.29535156 -22.42351562 13.31726563 -23.66796875 13.33984375 C-27.65913747 13.71315801 -27.65913747 13.71315801 -30.9453125 15.7109375 C-31.94089177 18.7059141 -31.94089177 18.7059141 -32.4453125 22.1484375 C-33.47895742 28.23470202 -33.47895742 28.23470202 -35.7890625 30.59375 C-38.04520008 31.76269085 -39.42161215 32.1435084 -41.9453125 32.1484375 C-42.6053125 32.16777344 -43.2653125 32.18710937 -43.9453125 32.20703125 C-46.96267417 31.45858412 -48.10207523 30.18879813 -49.9453125 27.7109375 C-51.07820663 20.94689313 -50.9897119 13.43375371 -47.33203125 7.453125 C-36.71717846 -5.88271822 -14.54809957 -9.64030694 0 0 Z " fill="#000000" transform="translate(416.9453125,16.2890625)"/>
</svg>
